<?xml version="1.0" standalone="no"?>
<!DOCTYPE svg PUBLIC "-//W3C//DTD SVG 20010904//EN"
 "http://www.w3.org/TR/2001/REC-SVG-20010904/DTD/svg10.dtd">
<svg version="1.0" xmlns="http://www.w3.org/2000/svg"
 width="270.000000pt" height="270.000000pt" viewBox="0 0 270.000000 270.000000"
 preserveAspectRatio="xMidYMid meet">
<metadata>
Created by potrace 1.14, written by Peter Selinger 2001-2017
</metadata>
<g transform="translate(0.000000,270.000000) scale(0.100000,-0.100000)"
fill="#000000" stroke="none">
<path d="M848 1468 l-3 -753 -23 -57 c-38 -93 -96 -128 -214 -128 l-58 0 0
-85 0 -85 53 0 c193 0 325 68 384 197 50 108 52 152 53 936 l0 727 -95 0 -94
0 -3 -752z"/>
<path d="M1440 1491 l0 -731 95 0 95 0 0 294 0 293 193 6 c204 5 267 16 355
61 64 33 125 99 159 171 26 57 28 68 28 200 0 133 -1 143 -29 202 -31 68 -98
138 -163 171 -92 48 -143 54 -445 59 l-288 5 0 -731z m556 554 c61 -18 118
-64 147 -118 18 -35 22 -58 22 -142 0 -115 -17 -161 -82 -214 -60 -50 -115
-61 -295 -61 l-158 0 0 275 0 275 158 0 c110 0 173 -4 208 -15z"/>
</g>
</svg>
